<svg preserveAspectRatio="none" width="100%" height="100%" overflow="visible" style="display: block;" viewBox="0 0 117.619 117.619" fill="none" xmlns="http://www.w3.org/2000/svg">
<g id="icon" opacity="0.8">
<path d="M58.8095 112.976C88.7249 112.976 112.976 88.7249 112.976 58.8095C112.976 28.8941 88.7249 4.64286 58.8095 4.64286C28.8941 4.64286 4.64286 28.8941 4.64286 58.8095C4.64286 88.7249 28.8941 112.976 58.8095 112.976Z" stroke="var(--stroke-0, white)" stroke-opacity="0.8" stroke-width="9.28571" stroke-linecap="round" stroke-linejoin="round"/>
<path d="M58.8095 91.3095C76.7588 91.3095 91.3095 76.7588 91.3095 58.8095C91.3095 40.8603 76.7588 26.3095 58.8095 26.3095C40.8603 26.3095 26.3095 40.8603 26.3095 58.8095C26.3095 76.7588 40.8603 91.3095 58.8095 91.3095Z" stroke="var(--stroke-0, white)" stroke-opacity="0.8" stroke-width="9.28571" stroke-linecap="round" stroke-linejoin="round"/>
<path d="M58.8095 69.6429C64.7926 69.6429 69.6429 64.7926 69.6429 58.8095C69.6429 52.8264 64.7926 47.9762 58.8095 47.9762C52.8264 47.9762 47.9762 52.8264 47.9762 58.8095C47.9762 64.7926 52.8264 69.6429 58.8095 69.6429Z" stroke="var(--stroke-0, white)" stroke-opacity="0.8" stroke-width="9.28571" stroke-linecap="round" stroke-linejoin="round"/>
</g>
</svg>
