<svg preserveAspectRatio="none" width="100%" height="100%" overflow="visible" style="display: block;" viewBox="0 0 120 120" fill="none" xmlns="http://www.w3.org/2000/svg">
<g id="Frame 67">
<path id="Rectangle 2" d="M0 57.7143C0 55.6629 1.66294 54 3.71429 54H28.2857C30.3371 54 32 55.6629 32 57.7143V116.286C32 118.337 30.3371 120 28.2857 120H3.71428C1.66294 120 0 118.337 0 116.286V57.7143Z" fill="var(--fill-0, white)" fill-opacity="0.8"/>
<path id="Rectangle 5" d="M44 26.7143C44 24.6629 45.6629 23 47.7143 23H72.2857C74.3371 23 76 24.6629 76 26.7143V116.286C76 118.337 74.3371 120 72.2857 120H47.7143C45.6629 120 44 118.337 44 116.286V26.7143Z" fill="var(--fill-0, white)" fill-opacity="0.8"/>
<path id="Rectangle 6" d="M88 3.71429C88 1.66294 89.6629 0 91.7143 0H116.286C118.337 0 120 1.66294 120 3.71429V116.286C120 118.337 118.337 120 116.286 120H91.7143C89.6629 120 88 118.337 88 116.286V3.71429Z" fill="var(--fill-0, white)" fill-opacity="0.8"/>
</g>
</svg>
