<svg preserveAspectRatio="none" width="100%" height="100%" overflow="visible" style="display: block;" viewBox="0 0 106.5 117.333" fill="none" xmlns="http://www.w3.org/2000/svg">
<path id="icon" d="M80.3333 102H79.25C70.1491 102 65.5987 102 62.1227 100.229C59.065 98.6709 56.5791 96.185 55.0211 93.1274C53.25 89.6513 53.25 85.1009 53.25 76V41.3333C53.25 32.2325 53.25 27.6821 55.0211 24.206C56.5791 21.1484 59.065 18.6624 62.1227 17.1045C65.5987 15.3333 70.1491 15.3333 79.25 15.3333H80.3333M80.3333 102C80.3333 107.983 85.1836 112.833 91.1667 112.833C97.1497 112.833 102 107.983 102 102C102 96.0169 97.1497 91.1667 91.1667 91.1667C85.1836 91.1667 80.3333 96.0169 80.3333 102ZM80.3333 15.3333C80.3333 21.3164 85.1836 26.1667 91.1667 26.1667C97.1497 26.1667 102 21.3164 102 15.3333C102 9.35025 97.1497 4.5 91.1667 4.5C85.1836 4.5 80.3333 9.35025 80.3333 15.3333ZM26.1667 58.6667L80.3333 58.6667M26.1667 58.6667C26.1667 64.6498 21.3164 69.5 15.3333 69.5C9.35025 69.5 4.5 64.6498 4.5 58.6667C4.5 52.6836 9.35025 47.8333 15.3333 47.8333C21.3164 47.8333 26.1667 52.6836 26.1667 58.6667ZM80.3333 58.6667C80.3333 64.6497 85.1836 69.5 91.1667 69.5C97.1497 69.5 102 64.6498 102 58.6667C102 52.6836 97.1497 47.8333 91.1667 47.8333C85.1836 47.8333 80.3333 52.6836 80.3333 58.6667Z" stroke="var(--stroke-0, white)" stroke-opacity="0.8" stroke-width="9" stroke-linecap="round" stroke-linejoin="round"/>
</svg>
