<svg preserveAspectRatio="none" width="100%" height="100%" overflow="visible" style="display: block;" viewBox="0 0 117.619 107.411" fill="none" xmlns="http://www.w3.org/2000/svg">
<path id="icon" d="M112.976 32.3518V54.0184M49.3303 18.8101H30.6429C21.542 18.8101 16.9916 18.8101 13.5155 20.5812C10.4579 22.1392 7.97194 24.6251 6.41399 27.6828C4.64285 31.1588 4.64285 35.7092 4.64286 44.8101L4.64286 51.3101C4.64287 56.3578 4.64287 58.8817 5.46751 60.8725C6.56703 63.527 8.67599 65.6359 11.3305 66.7354C13.3213 67.5601 15.8452 67.5601 20.8929 67.5601V90.5809C20.8929 91.8385 20.8929 92.4673 20.945 92.9969C21.4516 98.1404 25.5209 102.21 30.6644 102.716C31.194 102.768 31.8228 102.768 33.0804 102.768C34.338 102.768 34.9667 102.768 35.4964 102.716C40.6398 102.21 44.7091 98.1404 45.2157 92.9969C45.2679 92.4673 45.2679 91.8385 45.2679 90.5809V67.5601H49.3304C58.8985 67.5601 70.6029 72.6891 79.6328 77.6115C84.9007 80.4832 87.5346 81.919 89.2597 81.7077C90.8594 81.5118 92.069 80.7935 93.0067 79.4828C94.0179 78.0692 94.0179 75.2409 94.0179 69.5844V16.7858C94.0179 11.1292 94.0179 8.30095 93.0067 6.88741C92.069 5.57664 90.8594 4.85839 89.2597 4.66246C87.5346 4.45117 84.9007 5.88701 79.6328 8.75868C70.6029 13.6811 58.8985 18.8101 49.3303 18.8101Z" stroke="var(--stroke-0, white)" stroke-opacity="0.8" stroke-width="9.28571" stroke-linecap="round" stroke-linejoin="round"/>
</svg>
