<svg preserveAspectRatio="none" width="100%" height="100%" overflow="visible" style="display: block;" viewBox="0 0 150 150" fill="none" xmlns="http://www.w3.org/2000/svg">
<g id="media &#38; devices/lightbulb-05">
<path id="icon" d="M74.9998 12.5V18.75M18.7498 75H12.4998M34.3748 34.375L30.6242 30.6244M115.625 34.375L119.376 30.6244M137.5 75H131.25M96.8748 105.462C106.338 98.6548 112.5 87.547 112.5 75C112.5 54.2893 95.7105 37.5 74.9998 37.5C54.2891 37.5 37.4998 54.2893 37.4998 75C37.4998 87.547 43.6619 98.6548 53.1248 105.462V117.5C53.1248 124.501 53.1248 128.001 54.4872 130.675C55.6857 133.027 57.5979 134.939 59.9499 136.138C62.6238 137.5 66.1242 137.5 73.1248 137.5H76.8748C83.8755 137.5 87.3758 137.5 90.0497 136.138C92.4017 134.939 94.314 133.027 95.5124 130.675C96.8748 128.001 96.8748 124.501 96.8748 117.5V105.462Z" stroke="var(--stroke-0, white)" stroke-opacity="0.8" stroke-width="9.23077" stroke-linecap="round" stroke-linejoin="round"/>
</g>
</svg>
