<svg preserveAspectRatio="none" width="100%" height="100%" overflow="visible" style="display: block;" viewBox="0 0 106.786 106.786" fill="none" xmlns="http://www.w3.org/2000/svg">
<path id="icon" d="M102.143 85.8929V53.3929C102.143 26.469 80.3167 4.64286 53.3929 4.64286C26.469 4.64286 4.64286 26.469 4.64286 53.3929V85.8929M18.1845 102.143C10.7057 102.143 4.64286 96.08 4.64286 88.6012V77.7679C4.64286 70.289 10.7057 64.2262 18.1845 64.2262C25.6634 64.2262 31.7262 70.289 31.7262 77.7679V88.6012C31.7262 96.08 25.6634 102.143 18.1845 102.143ZM88.6012 102.143C81.1223 102.143 75.0595 96.08 75.0595 88.6012V77.7679C75.0595 70.289 81.1223 64.2262 88.6012 64.2262C96.08 64.2262 102.143 70.289 102.143 77.7679V88.6012C102.143 96.08 96.08 102.143 88.6012 102.143Z" stroke="var(--stroke-0, white)" stroke-opacity="0.8" stroke-width="9.28571" stroke-linecap="round" stroke-linejoin="round"/>
</svg>
