<svg preserveAspectRatio="none" width="100%" height="100%" overflow="visible" style="display: block;" viewBox="0 0 18 22" fill="none" xmlns="http://www.w3.org/2000/svg">
<path id="Combined Shape" d="M17 10C17.5522 10 17.9999 10.4478 18 11V19C18 20.6569 16.6569 22 15 22H3C1.34315 22 0 20.6569 0 19V11C7.93638e-05 10.4478 0.447764 10 1 10C1.55224 10 1.99992 10.4478 2 11V19C2 19.5523 2.44772 20 3 20H15C15.5523 20 16 19.5523 16 19V11C16.0001 10.4478 16.4478 10 17 10ZM9 0C9.05627 0 9.1113 0.00571598 9.16504 0.0146484C9.1738 0.0161078 9.18268 0.0168614 9.19141 0.0185547L9.20117 0.0205078C9.21102 0.0225197 9.22073 0.0250446 9.23047 0.0273438C9.25103 0.0321941 9.27171 0.0368016 9.29199 0.0429688C9.30562 0.0471196 9.31866 0.0529072 9.33203 0.0576172C9.34941 0.0637244 9.36671 0.0700526 9.38379 0.0771484C9.39269 0.0808521 9.40139 0.0849161 9.41016 0.0888672C9.43187 0.0986353 9.4535 0.10872 9.47461 0.120117C9.56033 0.166447 9.63868 0.224637 9.70703 0.292969L13.707 4.29297C14.0975 4.68347 14.0975 5.3165 13.707 5.70703C13.3165 6.09756 12.6835 6.09756 12.293 5.70703L10 3.41406V14C10 14.5523 9.55228 15 9 15C8.44772 15 8 14.5523 8 14V3.41406L5.70703 5.70703C5.31651 6.09756 4.68349 6.09756 4.29297 5.70703C3.90252 5.3165 3.90247 4.68347 4.29297 4.29297L8.29297 0.292969C8.36111 0.224837 8.43898 0.166382 8.52441 0.120117C8.54551 0.108707 8.56717 0.0986504 8.58887 0.0888672C8.59763 0.0849097 8.60634 0.0808588 8.61523 0.0771484C8.63231 0.0700396 8.64963 0.0637383 8.66699 0.0576172C8.68035 0.052896 8.69342 0.0471312 8.70703 0.0429688C8.7273 0.0367843 8.748 0.0322123 8.76855 0.0273438C8.7799 0.0246548 8.79124 0.0218301 8.80273 0.0195312C8.80468 0.0191427 8.80665 0.0189317 8.80859 0.0185547L8.89746 0.00488281C8.93116 0.00145216 8.9654 0 9 0Z" fill="var(--fill-0, #ffffff)"/>
</svg>
