<svg preserveAspectRatio="none" width="100%" height="100%" overflow="visible" style="display: block;" viewBox="0 0 21.8 21.8" fill="none" xmlns="http://www.w3.org/2000/svg">
<path id="icon" d="M12.4295 7.25186C11.8571 7.65995 11.1566 7.9 10.4 7.9C8.46701 7.9 6.9 6.333 6.9 4.4C6.9 2.467 8.46701 0.9 10.4 0.9C11.653 0.9 12.7522 1.55842 13.3705 2.54814M4.9 18.9872H7.51029C7.85063 18.9872 8.18889 19.0277 8.51882 19.1086L11.2769 19.7789C11.8753 19.9247 12.4988 19.9388 13.1035 19.8214L16.153 19.2281C16.9585 19.0712 17.6996 18.6854 18.2803 18.1205L20.4379 16.0217C21.054 15.4234 21.054 14.4524 20.4379 13.8531C19.8832 13.3134 19.0047 13.2527 18.3771 13.7103L15.8626 15.5449C15.5025 15.8081 15.0643 15.9498 14.6137 15.9498H12.1855L13.7311 15.9498C14.6022 15.9498 15.3079 15.2633 15.3079 14.4159V14.1091C15.3079 13.4055 14.8156 12.792 14.1141 12.6219L11.7286 12.0417C11.3404 11.9476 10.9428 11.9 10.5431 11.9C9.57834 11.9 7.8319 12.6988 7.8319 12.6988L4.9 13.9249M18.9 5.4C18.9 7.333 17.333 8.9 15.4 8.9C13.467 8.9 11.9 7.333 11.9 5.4C11.9 3.467 13.467 1.9 15.4 1.9C17.333 1.9 18.9 3.467 18.9 5.4ZM0.900004 13.5L0.900004 19.3C0.900004 19.8601 0.900004 20.1401 1.009 20.354C1.10487 20.5422 1.25785 20.6951 1.44601 20.791C1.65992 20.9 1.93995 20.9 2.5 20.9H3.3C3.86006 20.9 4.14008 20.9 4.35399 20.791C4.54216 20.6951 4.69514 20.5422 4.79101 20.354C4.9 20.1401 4.9 19.8601 4.9 19.3V13.5C4.9 12.9399 4.9 12.6599 4.79101 12.446C4.69514 12.2578 4.54216 12.1049 4.35399 12.009C4.14008 11.9 3.86006 11.9 3.3 11.9L2.5 11.9C1.93995 11.9 1.65993 11.9 1.44601 12.009C1.25785 12.1049 1.10487 12.2578 1.009 12.446C0.900004 12.6599 0.900004 12.9399 0.900004 13.5Z" stroke="var(--stroke-0, white)" stroke-width="1.8" stroke-linecap="round" stroke-linejoin="round"/>
</svg>
