<svg preserveAspectRatio="none" width="100%" height="100%" overflow="visible" style="display: block;" viewBox="0 0 11 11" fill="none" xmlns="http://www.w3.org/2000/svg">
<path id="Icon" d="M2.15815 9.2192C2.46231 8.5026 3.17246 8 4 8H7C7.82754 8 8.53769 8.5026 8.84185 9.2192M7.5 4.25C7.5 5.35457 6.60457 6.25 5.5 6.25C4.39543 6.25 3.5 5.35457 3.5 4.25C3.5 3.14543 4.39543 2.25 5.5 2.25C6.60457 2.25 7.5 3.14543 7.5 4.25ZM10.5 5.5C10.5 8.26142 8.26142 10.5 5.5 10.5C2.73858 10.5 0.5 8.26142 0.5 5.5C0.5 2.73858 2.73858 0.5 5.5 0.5C8.26142 0.5 10.5 2.73858 10.5 5.5Z" stroke="var(--stroke-0, #70737C)" stroke-linecap="round" stroke-linejoin="round"/>
</svg>
